<?xml version="1.0" encoding="UTF-8" standalone="no"?><svg xmlns="http://www.w3.org/2000/svg" xmlns:xlink="http://www.w3.org/1999/xlink" contentScriptType="application/ecmascript" contentStyleType="text/css" height="1025px" preserveAspectRatio="none" style="width:1358px;height:1025px;" version="1.1" viewBox="0 0 1358 1025" width="1358.75px" zoomAndPan="magnify"><defs><filter height="300%" id="fgdf7wdqfrdi1" width="300%" x="-1" y="-1"><feGaussianBlur result="blurOut" stdDeviation="2.5"/><feColorMatrix in="blurOut" result="blurOut2" type="matrix" values="0 0 0 0 0 0 0 0 0 0 0 0 0 0 0 0 0 0 .4 0"/><feOffset dx="5.0" dy="5.0" in="blurOut2" result="blurOut3"/><feBlend in="SourceGraphic" in2="blurOut3" mode="normal"/></filter></defs><g><!--MD5=[a60570e4b426f702ccbb0d459e3b9417]
cluster models--><polygon fill="#FFFFFF" filter="url(#fgdf7wdqfrdi1)" points="20,563.75,91.25,563.75,100,593.2617,595,593.2617,595,1016.875,20,1016.875,20,563.75" style="stroke: #000000; stroke-width: 1.875;"/><line style="stroke: #000000; stroke-width: 1.875;" x1="20" x2="100" y1="593.2617" y2="593.2617"/><text fill="#000000" font-family="sans-serif" font-size="17.5" font-weight="bold" lengthAdjust="spacingAndGlyphs" textLength="63.75" x="25" y="584.4165">models</text><!--MD5=[c52f45833d539af9e29a9d34b8b7302b]
cluster utils--><polygon fill="#FFFFFF" filter="url(#fgdf7wdqfrdi1)" points="1197.5,891.875,1242.5,891.875,1251.25,921.3867,1337.5,921.3867,1337.5,1016.875,1197.5,1016.875,1197.5,891.875" style="stroke: #000000; stroke-width: 1.875;"/><line style="stroke: #000000; stroke-width: 1.875;" x1="1197.5" x2="1251.25" y1="921.3867" y2="921.3867"/><text fill="#000000" font-family="sans-serif" font-size="17.5" font-weight="bold" lengthAdjust="spacingAndGlyphs" textLength="37.5" x="1202.5" y="912.5415">utils</text><!--MD5=[e2a75efa8a0f57c2afae8bf75386f79c]
cluster views--><polygon fill="#FFFFFF" filter="url(#fgdf7wdqfrdi1)" points="625,263.75,683.75,263.75,692.5,293.2617,1132.5,293.2617,1132.5,1016.875,625,1016.875,625,263.75" style="stroke: #000000; stroke-width: 1.875;"/><line style="stroke: #000000; stroke-width: 1.875;" x1="625" x2="692.5" y1="293.2617" y2="293.2617"/><text fill="#000000" font-family="sans-serif" font-size="17.5" font-weight="bold" lengthAdjust="spacingAndGlyphs" textLength="51.25" x="630" y="284.4165">views</text><!--MD5=[4b7a55d430ce43d42ce9ebad9e6b4010]
cluster console--><polygon fill="#FFFFFF" filter="url(#fgdf7wdqfrdi1)" points="770,563.75,847.5,563.75,856.25,593.2617,1102.5,593.2617,1102.5,850.625,770,850.625,770,563.75" style="stroke: #000000; stroke-width: 1.875;"/><line style="stroke: #000000; stroke-width: 1.875;" x1="770" x2="856.25" y1="593.2617" y2="593.2617"/><text fill="#000000" font-family="sans-serif" font-size="17.5" font-weight="bold" lengthAdjust="spacingAndGlyphs" textLength="70" x="775" y="584.4165">console</text><!--MD5=[b6dcce5e5ef3c84b0b048d11301373dd]
class Game--><rect codeLine="17" fill="#FEFECE" filter="url(#fgdf7wdqfrdi1)" height="60" id="Game" style="stroke: #A80036; stroke-width: 1.875;" width="82.5" x="422.5" y="608.75"/><ellipse cx="441.25" cy="628.75" fill="#ADD1B2" rx="13.75" ry="13.75" style="stroke: #A80036; stroke-width: 1.25;"/><path d="M443.75,624.375 Q444.0039,623.75 444.2969,623.4375 Q444.5898,623.125 444.9219,623.125 Q445.5078,623.125 445.8789,623.4766 Q446.25,623.8281 446.25,624.6484 L446.25,626.6016 Q446.25,627.4219 445.8984,627.7734 Q445.5469,628.125 445,628.125 Q444.5117,628.125 444.1992,627.9102 Q443.8867,627.6953 443.75,627.1289 Q443.6914,626.7383 443.4766,626.5234 Q443.0859,626.1133 442.3828,625.8789 Q441.6797,625.625 440.9766,625.625 Q440.0977,625.625 439.3555,625.9766 Q438.6328,626.3281 438.0664,627.1094 Q437.5,627.8906 437.5,628.9648 L437.5,630.1172 Q437.5,631.4063 438.5547,632.2656 Q439.6094,633.125 441.4844,633.125 Q442.5977,633.125 443.3789,632.8711 Q443.8281,632.7344 444.3359,632.2852 Q444.668,632.0313 444.8438,631.9531 Q445.0195,631.875 445.2344,631.875 Q445.6445,631.875 445.9375,632.207 Q446.25,632.5195 446.25,632.9688 Q446.25,633.3984 445.8203,633.9063 Q445.1953,634.6484 444.1992,635.0586 Q442.8906,635.625 441.2891,635.625 Q439.4141,635.625 437.9102,634.8828 Q436.6992,634.2969 435.8398,633.0273 Q435,631.7578 435,630.2539 L435,628.8867 Q435,627.3242 435.7422,625.957 Q436.5039,624.5898 437.8125,623.8672 Q439.1406,623.125 440.625,623.125 Q441.5234,623.125 442.3047,623.4375 Q443.0859,623.75 443.75,624.375 Z " fill="#000000"/><text fill="#000000" font-family="sans-serif" font-size="15" lengthAdjust="spacingAndGlyphs" textLength="42.5" x="458.75" y="634.8877">Game</text><line style="stroke: #A80036; stroke-width: 1.875;" x1="423.75" x2="503.75" y1="648.75" y2="648.75"/><line style="stroke: #A80036; stroke-width: 1.875;" x1="423.75" x2="503.75" y1="658.75" y2="658.75"/><!--MD5=[28491d17d5ee38c9c116625a5ffc259a]
class Combination--><rect codeLine="18" fill="#FEFECE" filter="url(#fgdf7wdqfrdi1)" height="60" id="Combination" style="stroke: #A80036; stroke-width: 1.875;" width="128.75" x="371.875" y="770.625"/><ellipse cx="390.625" cy="790.625" fill="#ADD1B2" rx="13.75" ry="13.75" style="stroke: #A80036; stroke-width: 1.25;"/><path d="M393.125,786.25 Q393.3789,785.625 393.6719,785.3125 Q393.9648,785 394.2969,785 Q394.8828,785 395.2539,785.3516 Q395.625,785.7031 395.625,786.5234 L395.625,788.4766 Q395.625,789.2969 395.2734,789.6484 Q394.9219,790 394.375,790 Q393.8867,790 393.5742,789.7852 Q393.2617,789.5703 393.125,789.0039 Q393.0664,788.6133 392.8516,788.3984 Q392.4609,787.9883 391.7578,787.7539 Q391.0547,787.5 390.3516,787.5 Q389.4727,787.5 388.7305,787.8516 Q388.0078,788.2031 387.4414,788.9844 Q386.875,789.7656 386.875,790.8398 L386.875,791.9922 Q386.875,793.2813 387.9297,794.1406 Q388.9844,795 390.8594,795 Q391.9727,795 392.7539,794.7461 Q393.2031,794.6094 393.7109,794.1602 Q394.043,793.9063 394.2188,793.8281 Q394.3945,793.75 394.6094,793.75 Q395.0195,793.75 395.3125,794.082 Q395.625,794.3945 395.625,794.8438 Q395.625,795.2734 395.1953,795.7813 Q394.5703,796.5234 393.5742,796.9336 Q392.2656,797.5 390.6641,797.5 Q388.7891,797.5 387.2852,796.7578 Q386.0742,796.1719 385.2148,794.9023 Q384.375,793.6328 384.375,792.1289 L384.375,790.7617 Q384.375,789.1992 385.1172,787.832 Q385.8789,786.4648 387.1875,785.7422 Q388.5156,785 390,785 Q390.8984,785 391.6797,785.3125 Q392.4609,785.625 393.125,786.25 Z " fill="#000000"/><text fill="#000000" font-family="sans-serif" font-size="15" lengthAdjust="spacingAndGlyphs" textLength="88.75" x="408.125" y="796.7627">Combination</text><line style="stroke: #A80036; stroke-width: 1.875;" x1="373.125" x2="499.375" y1="810.625" y2="810.625"/><line style="stroke: #A80036; stroke-width: 1.875;" x1="373.125" x2="499.375" y1="820.625" y2="820.625"/><!--MD5=[e370ee5c0c15ce04544d5f5a73174d72]
class SecretCombination--><rect codeLine="19" fill="#FEFECE" filter="url(#fgdf7wdqfrdi1)" height="60" id="SecretCombination" style="stroke: #A80036; stroke-width: 1.875;" width="172.5" x="40" y="936.875"/><ellipse cx="58.75" cy="956.875" fill="#ADD1B2" rx="13.75" ry="13.75" style="stroke: #A80036; stroke-width: 1.25;"/><path d="M61.25,952.5 Q61.5039,951.875 61.7969,951.5625 Q62.0898,951.25 62.4219,951.25 Q63.0078,951.25 63.3789,951.6016 Q63.75,951.9531 63.75,952.7734 L63.75,954.7266 Q63.75,955.5469 63.3984,955.8984 Q63.0469,956.25 62.5,956.25 Q62.0117,956.25 61.6992,956.0352 Q61.3867,955.8203 61.25,955.2539 Q61.1914,954.8633 60.9766,954.6484 Q60.5859,954.2383 59.8828,954.0039 Q59.1797,953.75 58.4766,953.75 Q57.5977,953.75 56.8555,954.1016 Q56.1328,954.4531 55.5664,955.2344 Q55,956.0156 55,957.0898 L55,958.2422 Q55,959.5313 56.0547,960.3906 Q57.1094,961.25 58.9844,961.25 Q60.0977,961.25 60.8789,960.9961 Q61.3281,960.8594 61.8359,960.4102 Q62.168,960.1563 62.3438,960.0781 Q62.5195,960 62.7344,960 Q63.1445,960 63.4375,960.332 Q63.75,960.6445 63.75,961.0938 Q63.75,961.5234 63.3203,962.0313 Q62.6953,962.7734 61.6992,963.1836 Q60.3906,963.75 58.7891,963.75 Q56.9141,963.75 55.4102,963.0078 Q54.1992,962.4219 53.3398,961.1523 Q52.5,959.8828 52.5,958.3789 L52.5,957.0117 Q52.5,955.4492 53.2422,954.082 Q54.0039,952.7148 55.3125,951.9922 Q56.6406,951.25 58.125,951.25 Q59.0234,951.25 59.8047,951.5625 Q60.5859,951.875 61.25,952.5 Z " fill="#000000"/><text fill="#000000" font-family="sans-serif" font-size="15" lengthAdjust="spacingAndGlyphs" textLength="132.5" x="76.25" y="963.0127">SecretCombination</text><line style="stroke: #A80036; stroke-width: 1.875;" x1="41.25" x2="211.25" y1="976.875" y2="976.875"/><line style="stroke: #A80036; stroke-width: 1.875;" x1="41.25" x2="211.25" y1="986.875" y2="986.875"/><!--MD5=[cf489b19c51ee25e76ddca093e62e620]
class ProposedCombination--><rect codeLine="20" fill="#FEFECE" filter="url(#fgdf7wdqfrdi1)" height="60" id="ProposedCombination" style="stroke: #A80036; stroke-width: 1.875;" width="196.25" x="378.125" y="936.875"/><ellipse cx="396.875" cy="956.875" fill="#ADD1B2" rx="13.75" ry="13.75" style="stroke: #A80036; stroke-width: 1.25;"/><path d="M399.375,952.5 Q399.6289,951.875 399.9219,951.5625 Q400.2148,951.25 400.5469,951.25 Q401.1328,951.25 401.5039,951.6016 Q401.875,951.9531 401.875,952.7734 L401.875,954.7266 Q401.875,955.5469 401.5234,955.8984 Q401.1719,956.25 400.625,956.25 Q400.1367,956.25 399.8242,956.0352 Q399.5117,955.8203 399.375,955.2539 Q399.3164,954.8633 399.1016,954.6484 Q398.7109,954.2383 398.0078,954.0039 Q397.3047,953.75 396.6016,953.75 Q395.7227,953.75 394.9805,954.1016 Q394.2578,954.4531 393.6914,955.2344 Q393.125,956.0156 393.125,957.0898 L393.125,958.2422 Q393.125,959.5313 394.1797,960.3906 Q395.2344,961.25 397.1094,961.25 Q398.2227,961.25 399.0039,960.9961 Q399.4531,960.8594 399.9609,960.4102 Q400.293,960.1563 400.4688,960.0781 Q400.6445,960 400.8594,960 Q401.2695,960 401.5625,960.332 Q401.875,960.6445 401.875,961.0938 Q401.875,961.5234 401.4453,962.0313 Q400.8203,962.7734 399.8242,963.1836 Q398.5156,963.75 396.9141,963.75 Q395.0391,963.75 393.5352,963.0078 Q392.3242,962.4219 391.4648,961.1523 Q390.625,959.8828 390.625,958.3789 L390.625,957.0117 Q390.625,955.4492 391.3672,954.082 Q392.1289,952.7148 393.4375,951.9922 Q394.7656,951.25 396.25,951.25 Q397.1484,951.25 397.9297,951.5625 Q398.7109,951.875 399.375,952.5 Z " fill="#000000"/><text fill="#000000" font-family="sans-serif" font-size="15" lengthAdjust="spacingAndGlyphs" textLength="156.25" x="414.375" y="963.0127">ProposedCombination</text><line style="stroke: #A80036; stroke-width: 1.875;" x1="379.375" x2="573.125" y1="976.875" y2="976.875"/><line style="stroke: #A80036; stroke-width: 1.875;" x1="379.375" x2="573.125" y1="986.875" y2="986.875"/><!--MD5=[18eee71c88ab61f27581b8cbdd3ef5ee]
class Color--><rect codeLine="21" fill="#FEFECE" filter="url(#fgdf7wdqfrdi1)" height="60" id="Color" style="stroke: #A80036; stroke-width: 1.875;" width="77.5" x="256.25" y="936.875"/><ellipse cx="275" cy="956.875" fill="#EB937F" rx="13.75" ry="13.75" style="stroke: #A80036; stroke-width: 1.25;"/><path d="M273.125,958.125 L273.125,960.625 L278.125,960.625 L278.125,959.375 L278.125,958.7695 L278.9063,958.125 L279.375,958.125 L279.8438,958.125 L280.625,958.7695 L280.625,959.375 L280.625,963.125 L270.625,963.125 L270.0195,963.125 L269.375,962.3438 L269.375,961.875 L269.375,961.4063 L270.0195,960.625 L270.625,960.625 L270.625,960.625 L270.625,953.125 L270.625,953.125 L270.0195,953.125 L269.375,952.3438 L269.375,951.875 L269.375,951.4063 L270.0195,950.625 L270.625,950.625 L280.625,950.625 L280.625,954.375 L280.625,954.9805 L279.8438,955.625 L279.375,955.625 L278.9063,955.625 L278.125,954.9805 L278.125,954.375 L278.125,953.125 L273.125,953.125 L273.125,955.625 L274.375,955.625 L274.375,955.0195 L274.375,955.0195 L275.1563,954.375 L275.625,954.375 L276.0938,954.375 L276.875,955.0195 L276.875,955.625 L276.875,958.125 L276.875,958.7305 L276.0938,959.375 L276.0938,959.375 L275.625,959.375 L275.1563,959.375 L274.375,958.7305 L274.375,958.7305 L274.375,958.125 L273.125,958.125 Z " fill="#000000"/><text fill="#000000" font-family="sans-serif" font-size="15" lengthAdjust="spacingAndGlyphs" textLength="37.5" x="292.5" y="963.0127">Color</text><line style="stroke: #A80036; stroke-width: 1.875;" x1="257.5" x2="332.5" y1="976.875" y2="976.875"/><line style="stroke: #A80036; stroke-width: 1.875;" x1="257.5" x2="332.5" y1="986.875" y2="986.875"/><!--MD5=[9bcb9a691789609c473493f37f542ed0]
class Attempt--><rect codeLine="22" fill="#FEFECE" filter="url(#fgdf7wdqfrdi1)" height="60" id="Attempt" style="stroke: #A80036; stroke-width: 1.875;" width="91.25" x="236.875" y="770.625"/><ellipse cx="255.625" cy="790.625" fill="#ADD1B2" rx="13.75" ry="13.75" style="stroke: #A80036; stroke-width: 1.25;"/><path d="M258.125,786.25 Q258.3789,785.625 258.6719,785.3125 Q258.9648,785 259.2969,785 Q259.8828,785 260.2539,785.3516 Q260.625,785.7031 260.625,786.5234 L260.625,788.4766 Q260.625,789.2969 260.2734,789.6484 Q259.9219,790 259.375,790 Q258.8867,790 258.5742,789.7852 Q258.2617,789.5703 258.125,789.0039 Q258.0664,788.6133 257.8516,788.3984 Q257.4609,787.9883 256.7578,787.7539 Q256.0547,787.5 255.3516,787.5 Q254.4727,787.5 253.7305,787.8516 Q253.0078,788.2031 252.4414,788.9844 Q251.875,789.7656 251.875,790.8398 L251.875,791.9922 Q251.875,793.2813 252.9297,794.1406 Q253.9844,795 255.8594,795 Q256.9727,795 257.7539,794.7461 Q258.2031,794.6094 258.7109,794.1602 Q259.043,793.9063 259.2188,793.8281 Q259.3945,793.75 259.6094,793.75 Q260.0195,793.75 260.3125,794.082 Q260.625,794.3945 260.625,794.8438 Q260.625,795.2734 260.1953,795.7813 Q259.5703,796.5234 258.5742,796.9336 Q257.2656,797.5 255.6641,797.5 Q253.7891,797.5 252.2852,796.7578 Q251.0742,796.1719 250.2148,794.9023 Q249.375,793.6328 249.375,792.1289 L249.375,790.7617 Q249.375,789.1992 250.1172,787.832 Q250.8789,786.4648 252.1875,785.7422 Q253.5156,785 255,785 Q255.8984,785 256.6797,785.3125 Q257.4609,785.625 258.125,786.25 Z " fill="#000000"/><text fill="#000000" font-family="sans-serif" font-size="15" lengthAdjust="spacingAndGlyphs" textLength="51.25" x="273.125" y="796.7627">Attempt</text><line style="stroke: #A80036; stroke-width: 1.875;" x1="238.125" x2="326.875" y1="810.625" y2="810.625"/><line style="stroke: #A80036; stroke-width: 1.875;" x1="238.125" x2="326.875" y1="820.625" y2="820.625"/><!--MD5=[315b61b427ec618d6861d47eee00cca3]
class Console--><rect codeLine="26" fill="#FEFECE" filter="url(#fgdf7wdqfrdi1)" height="60" id="Console" style="stroke: #A80036; stroke-width: 1.875;" width="98.75" x="1218.125" y="936.875"/><ellipse cx="1236.875" cy="956.875" fill="#ADD1B2" rx="13.75" ry="13.75" style="stroke: #A80036; stroke-width: 1.25;"/><path d="M1239.375,952.5 Q1239.6289,951.875 1239.9219,951.5625 Q1240.2148,951.25 1240.5469,951.25 Q1241.1328,951.25 1241.5039,951.6016 Q1241.875,951.9531 1241.875,952.7734 L1241.875,954.7266 Q1241.875,955.5469 1241.5234,955.8984 Q1241.1719,956.25 1240.625,956.25 Q1240.1367,956.25 1239.8242,956.0352 Q1239.5117,955.8203 1239.375,955.2539 Q1239.3164,954.8633 1239.1016,954.6484 Q1238.7109,954.2383 1238.0078,954.0039 Q1237.3047,953.75 1236.6016,953.75 Q1235.7227,953.75 1234.9805,954.1016 Q1234.2578,954.4531 1233.6914,955.2344 Q1233.125,956.0156 1233.125,957.0898 L1233.125,958.2422 Q1233.125,959.5313 1234.1797,960.3906 Q1235.2344,961.25 1237.1094,961.25 Q1238.2227,961.25 1239.0039,960.9961 Q1239.4531,960.8594 1239.9609,960.4102 Q1240.293,960.1563 1240.4688,960.0781 Q1240.6445,960 1240.8594,960 Q1241.2695,960 1241.5625,960.332 Q1241.875,960.6445 1241.875,961.0938 Q1241.875,961.5234 1241.4453,962.0313 Q1240.8203,962.7734 1239.8242,963.1836 Q1238.5156,963.75 1236.9141,963.75 Q1235.0391,963.75 1233.5352,963.0078 Q1232.3242,962.4219 1231.4648,961.1523 Q1230.625,959.8828 1230.625,958.3789 L1230.625,957.0117 Q1230.625,955.4492 1231.3672,954.082 Q1232.1289,952.7148 1233.4375,951.9922 Q1234.7656,951.25 1236.25,951.25 Q1237.1484,951.25 1237.9297,951.5625 Q1238.7109,951.875 1239.375,952.5 Z " fill="#000000"/><text fill="#000000" font-family="sans-serif" font-size="15" lengthAdjust="spacingAndGlyphs" textLength="58.75" x="1254.375" y="963.0127">Console</text><line style="stroke: #A80036; stroke-width: 1.875;" x1="1219.375" x2="1315.625" y1="976.875" y2="976.875"/><line style="stroke: #A80036; stroke-width: 1.875;" x1="1219.375" x2="1315.625" y1="986.875" y2="986.875"/><!--MD5=[838ac959de5e1ba4664740f6291c93a0]
class ErrorMessage--><rect codeLine="33" fill="#FEFECE" filter="url(#fgdf7wdqfrdi1)" height="60" id="ErrorMessage" style="stroke: #A80036; stroke-width: 1.875;" width="137.5" x="826.25" y="936.875"/><ellipse cx="845" cy="956.875" fill="#ADD1B2" rx="13.75" ry="13.75" style="stroke: #A80036; stroke-width: 1.25;"/><path d="M847.5,952.5 Q847.7539,951.875 848.0469,951.5625 Q848.3398,951.25 848.6719,951.25 Q849.2578,951.25 849.6289,951.6016 Q850,951.9531 850,952.7734 L850,954.7266 Q850,955.5469 849.6484,955.8984 Q849.2969,956.25 848.75,956.25 Q848.2617,956.25 847.9492,956.0352 Q847.6367,955.8203 847.5,955.2539 Q847.4414,954.8633 847.2266,954.6484 Q846.8359,954.2383 846.1328,954.0039 Q845.4297,953.75 844.7266,953.75 Q843.8477,953.75 843.1055,954.1016 Q842.3828,954.4531 841.8164,955.2344 Q841.25,956.0156 841.25,957.0898 L841.25,958.2422 Q841.25,959.5313 842.3047,960.3906 Q843.3594,961.25 845.2344,961.25 Q846.3477,961.25 847.1289,960.9961 Q847.5781,960.8594 848.0859,960.4102 Q848.418,960.1563 848.5938,960.0781 Q848.7695,960 848.9844,960 Q849.3945,960 849.6875,960.332 Q850,960.6445 850,961.0938 Q850,961.5234 849.5703,962.0313 Q848.9453,962.7734 847.9492,963.1836 Q846.6406,963.75 845.0391,963.75 Q843.1641,963.75 841.6602,963.0078 Q840.4492,962.4219 839.5898,961.1523 Q838.75,959.8828 838.75,958.3789 L838.75,957.0117 Q838.75,955.4492 839.4922,954.082 Q840.2539,952.7148 841.5625,951.9922 Q842.8906,951.25 844.375,951.25 Q845.2734,951.25 846.0547,951.5625 Q846.8359,951.875 847.5,952.5 Z " fill="#000000"/><text fill="#000000" font-family="sans-serif" font-size="15" lengthAdjust="spacingAndGlyphs" textLength="97.5" x="862.5" y="963.0127">ErrorMessage</text><line style="stroke: #A80036; stroke-width: 1.875;" x1="827.5" x2="962.5" y1="976.875" y2="976.875"/><line style="stroke: #A80036; stroke-width: 1.875;" x1="827.5" x2="962.5" y1="986.875" y2="986.875"/><!--MD5=[bea5b0d46523efab5ea1c1d339f396f0]
class Message--><rect codeLine="34" fill="#FEFECE" filter="url(#fgdf7wdqfrdi1)" height="60" id="Message" style="stroke: #A80036; stroke-width: 1.875;" width="103.75" x="1008.125" y="936.875"/><ellipse cx="1026.875" cy="956.875" fill="#ADD1B2" rx="13.75" ry="13.75" style="stroke: #A80036; stroke-width: 1.25;"/><path d="M1029.375,952.5 Q1029.6289,951.875 1029.9219,951.5625 Q1030.2148,951.25 1030.5469,951.25 Q1031.1328,951.25 1031.5039,951.6016 Q1031.875,951.9531 1031.875,952.7734 L1031.875,954.7266 Q1031.875,955.5469 1031.5234,955.8984 Q1031.1719,956.25 1030.625,956.25 Q1030.1367,956.25 1029.8242,956.0352 Q1029.5117,955.8203 1029.375,955.2539 Q1029.3164,954.8633 1029.1016,954.6484 Q1028.7109,954.2383 1028.0078,954.0039 Q1027.3047,953.75 1026.6016,953.75 Q1025.7227,953.75 1024.9805,954.1016 Q1024.2578,954.4531 1023.6914,955.2344 Q1023.125,956.0156 1023.125,957.0898 L1023.125,958.2422 Q1023.125,959.5313 1024.1797,960.3906 Q1025.2344,961.25 1027.1094,961.25 Q1028.2227,961.25 1029.0039,960.9961 Q1029.4531,960.8594 1029.9609,960.4102 Q1030.293,960.1563 1030.4688,960.0781 Q1030.6445,960 1030.8594,960 Q1031.2695,960 1031.5625,960.332 Q1031.875,960.6445 1031.875,961.0938 Q1031.875,961.5234 1031.4453,962.0313 Q1030.8203,962.7734 1029.8242,963.1836 Q1028.5156,963.75 1026.9141,963.75 Q1025.0391,963.75 1023.5352,963.0078 Q1022.3242,962.4219 1021.4648,961.1523 Q1020.625,959.8828 1020.625,958.3789 L1020.625,957.0117 Q1020.625,955.4492 1021.3672,954.082 Q1022.1289,952.7148 1023.4375,951.9922 Q1024.7656,951.25 1026.25,951.25 Q1027.1484,951.25 1027.9297,951.5625 Q1028.7109,951.875 1029.375,952.5 Z " fill="#000000"/><text fill="#000000" font-family="sans-serif" font-size="15" lengthAdjust="spacingAndGlyphs" textLength="63.75" x="1044.375" y="963.0127">Message</text><line style="stroke: #A80036; stroke-width: 1.875;" x1="1009.375" x2="1110.625" y1="976.875" y2="976.875"/><line style="stroke: #A80036; stroke-width: 1.875;" x1="1009.375" x2="1110.625" y1="986.875" y2="986.875"/><!--MD5=[c045e12321b83266d36d22b9096c24ea]
class View--><rect codeLine="35" fill="#FEFECE" filter="url(#fgdf7wdqfrdi1)" height="60" id="View" style="stroke: #A80036; stroke-width: 1.875;" width="72.5" x="645" y="308.75"/><ellipse cx="663.75" cy="328.75" fill="#ADD1B2" rx="13.75" ry="13.75" style="stroke: #A80036; stroke-width: 1.25;"/><path d="M666.25,324.375 Q666.5039,323.75 666.7969,323.4375 Q667.0898,323.125 667.4219,323.125 Q668.0078,323.125 668.3789,323.4766 Q668.75,323.8281 668.75,324.6484 L668.75,326.6016 Q668.75,327.4219 668.3984,327.7734 Q668.0469,328.125 667.5,328.125 Q667.0117,328.125 666.6992,327.9102 Q666.3867,327.6953 666.25,327.1289 Q666.1914,326.7383 665.9766,326.5234 Q665.5859,326.1133 664.8828,325.8789 Q664.1797,325.625 663.4766,325.625 Q662.5977,325.625 661.8555,325.9766 Q661.1328,326.3281 660.5664,327.1094 Q660,327.8906 660,328.9648 L660,330.1172 Q660,331.4063 661.0547,332.2656 Q662.1094,333.125 663.9844,333.125 Q665.0977,333.125 665.8789,332.8711 Q666.3281,332.7344 666.8359,332.2852 Q667.168,332.0313 667.3438,331.9531 Q667.5195,331.875 667.7344,331.875 Q668.1445,331.875 668.4375,332.207 Q668.75,332.5195 668.75,332.9688 Q668.75,333.3984 668.3203,333.9063 Q667.6953,334.6484 666.6992,335.0586 Q665.3906,335.625 663.7891,335.625 Q661.9141,335.625 660.4102,334.8828 Q659.1992,334.2969 658.3398,333.0273 Q657.5,331.7578 657.5,330.2539 L657.5,328.8867 Q657.5,327.3242 658.2422,325.957 Q659.0039,324.5898 660.3125,323.8672 Q661.6406,323.125 663.125,323.125 Q664.0234,323.125 664.8047,323.4375 Q665.5859,323.75 666.25,324.375 Z " fill="#000000"/><text fill="#000000" font-family="sans-serif" font-size="15" lengthAdjust="spacingAndGlyphs" textLength="32.5" x="681.25" y="334.8877">View</text><line style="stroke: #A80036; stroke-width: 1.875;" x1="646.25" x2="716.25" y1="348.75" y2="348.75"/><line style="stroke: #A80036; stroke-width: 1.875;" x1="646.25" x2="716.25" y1="358.75" y2="358.75"/><!--MD5=[9c1370162989b2d7849ddfcc7e59be3c]
class GraphicView--><rect codeLine="36" fill="#FEFECE" filter="url(#fgdf7wdqfrdi1)" height="60" id="GraphicView" style="stroke: #A80036; stroke-width: 1.875;" width="126.25" x="645.625" y="445"/><ellipse cx="664.375" cy="465" fill="#ADD1B2" rx="13.75" ry="13.75" style="stroke: #A80036; stroke-width: 1.25;"/><path d="M666.875,460.625 Q667.1289,460 667.4219,459.6875 Q667.7148,459.375 668.0469,459.375 Q668.6328,459.375 669.0039,459.7266 Q669.375,460.0781 669.375,460.8984 L669.375,462.8516 Q669.375,463.6719 669.0234,464.0234 Q668.6719,464.375 668.125,464.375 Q667.6367,464.375 667.3242,464.1602 Q667.0117,463.9453 666.875,463.3789 Q666.8164,462.9883 666.6016,462.7734 Q666.2109,462.3633 665.5078,462.1289 Q664.8047,461.875 664.1016,461.875 Q663.2227,461.875 662.4805,462.2266 Q661.7578,462.5781 661.1914,463.3594 Q660.625,464.1406 660.625,465.2148 L660.625,466.3672 Q660.625,467.6563 661.6797,468.5156 Q662.7344,469.375 664.6094,469.375 Q665.7227,469.375 666.5039,469.1211 Q666.9531,468.9844 667.4609,468.5352 Q667.793,468.2813 667.9688,468.2031 Q668.1445,468.125 668.3594,468.125 Q668.7695,468.125 669.0625,468.457 Q669.375,468.7695 669.375,469.2188 Q669.375,469.6484 668.9453,470.1563 Q668.3203,470.8984 667.3242,471.3086 Q666.0156,471.875 664.4141,471.875 Q662.5391,471.875 661.0352,471.1328 Q659.8242,470.5469 658.9648,469.2773 Q658.125,468.0078 658.125,466.5039 L658.125,465.1367 Q658.125,463.5742 658.8672,462.207 Q659.6289,460.8398 660.9375,460.1172 Q662.2656,459.375 663.75,459.375 Q664.6484,459.375 665.4297,459.6875 Q666.2109,460 666.875,460.625 Z " fill="#000000"/><text fill="#000000" font-family="sans-serif" font-size="15" lengthAdjust="spacingAndGlyphs" textLength="86.25" x="681.875" y="471.1377">GraphicView</text><line style="stroke: #A80036; stroke-width: 1.875;" x1="646.875" x2="770.625" y1="485" y2="485"/><line style="stroke: #A80036; stroke-width: 1.875;" x1="646.875" x2="770.625" y1="495" y2="495"/><!--MD5=[51d729737bd84a4c43136dd336c2eea1]
class ConsoleView--><rect codeLine="37" fill="#FEFECE" filter="url(#fgdf7wdqfrdi1)" height="60" id="ConsoleView" style="stroke: #A80036; stroke-width: 1.875;" width="131.25" x="833.125" y="445"/><ellipse cx="851.875" cy="465" fill="#ADD1B2" rx="13.75" ry="13.75" style="stroke: #A80036; stroke-width: 1.25;"/><path d="M854.375,460.625 Q854.6289,460 854.9219,459.6875 Q855.2148,459.375 855.5469,459.375 Q856.1328,459.375 856.5039,459.7266 Q856.875,460.0781 856.875,460.8984 L856.875,462.8516 Q856.875,463.6719 856.5234,464.0234 Q856.1719,464.375 855.625,464.375 Q855.1367,464.375 854.8242,464.1602 Q854.5117,463.9453 854.375,463.3789 Q854.3164,462.9883 854.1016,462.7734 Q853.7109,462.3633 853.0078,462.1289 Q852.3047,461.875 851.6016,461.875 Q850.7227,461.875 849.9805,462.2266 Q849.2578,462.5781 848.6914,463.3594 Q848.125,464.1406 848.125,465.2148 L848.125,466.3672 Q848.125,467.6563 849.1797,468.5156 Q850.2344,469.375 852.1094,469.375 Q853.2227,469.375 854.0039,469.1211 Q854.4531,468.9844 854.9609,468.5352 Q855.293,468.2813 855.4688,468.2031 Q855.6445,468.125 855.8594,468.125 Q856.2695,468.125 856.5625,468.457 Q856.875,468.7695 856.875,469.2188 Q856.875,469.6484 856.4453,470.1563 Q855.8203,470.8984 854.8242,471.3086 Q853.5156,471.875 851.9141,471.875 Q850.0391,471.875 848.5352,471.1328 Q847.3242,470.5469 846.4648,469.2773 Q845.625,468.0078 845.625,466.5039 L845.625,465.1367 Q845.625,463.5742 846.3672,462.207 Q847.1289,460.8398 848.4375,460.1172 Q849.7656,459.375 851.25,459.375 Q852.1484,459.375 852.9297,459.6875 Q853.7109,460 854.375,460.625 Z " fill="#000000"/><text fill="#000000" font-family="sans-serif" font-size="15" lengthAdjust="spacingAndGlyphs" textLength="91.25" x="869.375" y="471.1377">ConsoleView</text><line style="stroke: #A80036; stroke-width: 1.875;" x1="834.375" x2="963.125" y1="485" y2="485"/><line style="stroke: #A80036; stroke-width: 1.875;" x1="834.375" x2="963.125" y1="495" y2="495"/><!--MD5=[0523615cfa2fa70c8ab764401f29a299]
class ProposedCombinationView--><rect codeLine="40" fill="#FEFECE" filter="url(#fgdf7wdqfrdi1)" height="60" id="ProposedCombinationView" style="stroke: #A80036; stroke-width: 1.875;" width="228.75" x="790.625" y="770.625"/><ellipse cx="809.375" cy="790.625" fill="#ADD1B2" rx="13.75" ry="13.75" style="stroke: #A80036; stroke-width: 1.25;"/><path d="M811.875,786.25 Q812.1289,785.625 812.4219,785.3125 Q812.7148,785 813.0469,785 Q813.6328,785 814.0039,785.3516 Q814.375,785.7031 814.375,786.5234 L814.375,788.4766 Q814.375,789.2969 814.0234,789.6484 Q813.6719,790 813.125,790 Q812.6367,790 812.3242,789.7852 Q812.0117,789.5703 811.875,789.0039 Q811.8164,788.6133 811.6016,788.3984 Q811.2109,787.9883 810.5078,787.7539 Q809.8047,787.5 809.1016,787.5 Q808.2227,787.5 807.4805,787.8516 Q806.7578,788.2031 806.1914,788.9844 Q805.625,789.7656 805.625,790.8398 L805.625,791.9922 Q805.625,793.2813 806.6797,794.1406 Q807.7344,795 809.6094,795 Q810.7227,795 811.5039,794.7461 Q811.9531,794.6094 812.4609,794.1602 Q812.793,793.9063 812.9688,793.8281 Q813.1445,793.75 813.3594,793.75 Q813.7695,793.75 814.0625,794.082 Q814.375,794.3945 814.375,794.8438 Q814.375,795.2734 813.9453,795.7813 Q813.3203,796.5234 812.3242,796.9336 Q811.0156,797.5 809.4141,797.5 Q807.5391,797.5 806.0352,796.7578 Q804.8242,796.1719 803.9648,794.9023 Q803.125,793.6328 803.125,792.1289 L803.125,790.7617 Q803.125,789.1992 803.8672,787.832 Q804.6289,786.4648 805.9375,785.7422 Q807.2656,785 808.75,785 Q809.6484,785 810.4297,785.3125 Q811.2109,785.625 811.875,786.25 Z " fill="#000000"/><text fill="#000000" font-family="sans-serif" font-size="15" lengthAdjust="spacingAndGlyphs" textLength="188.75" x="826.875" y="796.7627">ProposedCombinationView</text><line style="stroke: #A80036; stroke-width: 1.875;" x1="791.875" x2="1018.125" y1="810.625" y2="810.625"/><line style="stroke: #A80036; stroke-width: 1.875;" x1="791.875" x2="1018.125" y1="820.625" y2="820.625"/><!--MD5=[19088a99a8c1f36e582d33ac2f8fc6dd]
class ResumeView--><rect codeLine="41" fill="#FEFECE" filter="url(#fgdf7wdqfrdi1)" height="60" id="ResumeView" style="stroke: #A80036; stroke-width: 1.875;" width="132.5" x="950" y="608.75"/><ellipse cx="968.75" cy="628.75" fill="#ADD1B2" rx="13.75" ry="13.75" style="stroke: #A80036; stroke-width: 1.25;"/><path d="M971.25,624.375 Q971.5039,623.75 971.7969,623.4375 Q972.0898,623.125 972.4219,623.125 Q973.0078,623.125 973.3789,623.4766 Q973.75,623.8281 973.75,624.6484 L973.75,626.6016 Q973.75,627.4219 973.3984,627.7734 Q973.0469,628.125 972.5,628.125 Q972.0117,628.125 971.6992,627.9102 Q971.3867,627.6953 971.25,627.1289 Q971.1914,626.7383 970.9766,626.5234 Q970.5859,626.1133 969.8828,625.8789 Q969.1797,625.625 968.4766,625.625 Q967.5977,625.625 966.8555,625.9766 Q966.1328,626.3281 965.5664,627.1094 Q965,627.8906 965,628.9648 L965,630.1172 Q965,631.4063 966.0547,632.2656 Q967.1094,633.125 968.9844,633.125 Q970.0977,633.125 970.8789,632.8711 Q971.3281,632.7344 971.8359,632.2852 Q972.168,632.0313 972.3438,631.9531 Q972.5195,631.875 972.7344,631.875 Q973.1445,631.875 973.4375,632.207 Q973.75,632.5195 973.75,632.9688 Q973.75,633.3984 973.3203,633.9063 Q972.6953,634.6484 971.6992,635.0586 Q970.3906,635.625 968.7891,635.625 Q966.9141,635.625 965.4102,634.8828 Q964.1992,634.2969 963.3398,633.0273 Q962.5,631.7578 962.5,630.2539 L962.5,628.8867 Q962.5,627.3242 963.2422,625.957 Q964.0039,624.5898 965.3125,623.8672 Q966.6406,623.125 968.125,623.125 Q969.0234,623.125 969.8047,623.4375 Q970.5859,623.75 971.25,624.375 Z " fill="#000000"/><text fill="#000000" font-family="sans-serif" font-size="15" lengthAdjust="spacingAndGlyphs" textLength="92.5" x="986.25" y="634.8877">ResumeView</text><line style="stroke: #A80036; stroke-width: 1.875;" x1="951.25" x2="1081.25" y1="648.75" y2="648.75"/><line style="stroke: #A80036; stroke-width: 1.875;" x1="951.25" x2="1081.25" y1="658.75" y2="658.75"/><!--MD5=[5d3822d29342fbd355d1b65ea3562ec9]
class GameView--><rect codeLine="42" fill="#FEFECE" filter="url(#fgdf7wdqfrdi1)" height="60" id="GameView" style="stroke: #A80036; stroke-width: 1.875;" width="115" x="791.25" y="608.75"/><ellipse cx="810" cy="628.75" fill="#ADD1B2" rx="13.75" ry="13.75" style="stroke: #A80036; stroke-width: 1.25;"/><path d="M812.5,624.375 Q812.7539,623.75 813.0469,623.4375 Q813.3398,623.125 813.6719,623.125 Q814.2578,623.125 814.6289,623.4766 Q815,623.8281 815,624.6484 L815,626.6016 Q815,627.4219 814.6484,627.7734 Q814.2969,628.125 813.75,628.125 Q813.2617,628.125 812.9492,627.9102 Q812.6367,627.6953 812.5,627.1289 Q812.4414,626.7383 812.2266,626.5234 Q811.8359,626.1133 811.1328,625.8789 Q810.4297,625.625 809.7266,625.625 Q808.8477,625.625 808.1055,625.9766 Q807.3828,626.3281 806.8164,627.1094 Q806.25,627.8906 806.25,628.9648 L806.25,630.1172 Q806.25,631.4063 807.3047,632.2656 Q808.3594,633.125 810.2344,633.125 Q811.3477,633.125 812.1289,632.8711 Q812.5781,632.7344 813.0859,632.2852 Q813.418,632.0313 813.5938,631.9531 Q813.7695,631.875 813.9844,631.875 Q814.3945,631.875 814.6875,632.207 Q815,632.5195 815,632.9688 Q815,633.3984 814.5703,633.9063 Q813.9453,634.6484 812.9492,635.0586 Q811.6406,635.625 810.0391,635.625 Q808.1641,635.625 806.6602,634.8828 Q805.4492,634.2969 804.5898,633.0273 Q803.75,631.7578 803.75,630.2539 L803.75,628.8867 Q803.75,627.3242 804.4922,625.957 Q805.2539,624.5898 806.5625,623.8672 Q807.8906,623.125 809.375,623.125 Q810.2734,623.125 811.0547,623.4375 Q811.8359,623.75 812.5,624.375 Z " fill="#000000"/><text fill="#000000" font-family="sans-serif" font-size="15" lengthAdjust="spacingAndGlyphs" textLength="75" x="827.5" y="634.8877">GameView</text><line style="stroke: #A80036; stroke-width: 1.875;" x1="792.5" x2="905" y1="648.75" y2="648.75"/><line style="stroke: #A80036; stroke-width: 1.875;" x1="792.5" x2="905" y1="658.75" y2="658.75"/><polygon fill="#FFFFFF" filter="url(#fgdf7wdqfrdi1)" points="645.625,604.375,729.375,604.375,738.125,633.8867,746.875,633.8867,746.875,673.3984,645.625,673.3984,645.625,604.375" style="stroke: #000000; stroke-width: 1.875;"/><line style="stroke: #000000; stroke-width: 1.875;" x1="645.625" x2="738.125" y1="633.8867" y2="633.8867"/><text fill="#000000" font-family="sans-serif" font-size="17.5" font-weight="bold" lengthAdjust="spacingAndGlyphs" textLength="76.25" x="650.625" y="625.0415">graphics</text><!--MD5=[7283a9eed84464550b6d5ebf39c68b05]
class Mastermind--><rect codeLine="12" fill="#FEFECE" filter="url(#fgdf7wdqfrdi1)" height="60" id="Mastermind" style="stroke: #A80036; stroke-width: 1.875;" width="120" x="588.75" y="8.75"/><ellipse cx="607.5" cy="28.75" fill="#A9DCDF" rx="13.75" ry="13.75" style="stroke: #A80036; stroke-width: 1.25;"/><path d="M609.6875,30.625 L605.5664,30.625 L605.0195,31.875 L605.0195,31.875 L605.6055,31.875 L606.25,32.6563 L606.25,33.125 L606.25,33.5938 L605.6055,34.375 L605.0195,34.375 L602.6563,34.375 L601.8945,34.375 L601.25,33.5938 L601.25,33.125 L601.25,32.6563 L601.8945,31.875 L602.6563,31.875 L605.5469,24.375 L604.4531,24.375 L603.1445,24.375 L602.5,23.5938 L602.5,23.125 L602.5,22.6563 L603.1445,21.875 L604.4531,21.875 L609.043,21.875 L612.4023,31.875 L613.1055,31.875 L613.1055,31.875 L613.75,32.6563 L613.75,33.125 L613.75,33.5938 L613.1055,34.375 L612.4023,34.375 L610.0391,34.375 L609.3945,34.375 L608.75,33.5938 L608.75,33.125 L608.75,32.6563 L609.3945,31.875 L610.0391,31.875 L610.0391,31.875 L609.6875,30.625 Z M609.0039,28.125 L607.5,23.6523 L606.2109,28.125 L609.0039,28.125 Z " fill="#000000"/><text fill="#000000" font-family="sans-serif" font-size="15" font-style="italic" lengthAdjust="spacingAndGlyphs" textLength="80" x="625" y="34.8877">Mastermind</text><line style="stroke: #A80036; stroke-width: 1.875;" x1="590" x2="707.5" y1="48.75" y2="48.75"/><line style="stroke: #A80036; stroke-width: 1.875;" x1="590" x2="707.5" y1="58.75" y2="58.75"/><!--MD5=[b42ceb2c5584a967df5f7acfe803d0f5]
class ConsoleMastermind--><rect codeLine="13" fill="#FEFECE" filter="url(#fgdf7wdqfrdi1)" height="60" id="ConsoleMastermind" style="stroke: #A80036; stroke-width: 1.875;" width="180" x="882.5" y="145"/><ellipse cx="901.25" cy="165" fill="#ADD1B2" rx="13.75" ry="13.75" style="stroke: #A80036; stroke-width: 1.25;"/><path d="M903.75,160.625 Q904.0039,160 904.2969,159.6875 Q904.5898,159.375 904.9219,159.375 Q905.5078,159.375 905.8789,159.7266 Q906.25,160.0781 906.25,160.8984 L906.25,162.8516 Q906.25,163.6719 905.8984,164.0234 Q905.5469,164.375 905,164.375 Q904.5117,164.375 904.1992,164.1602 Q903.8867,163.9453 903.75,163.3789 Q903.6914,162.9883 903.4766,162.7734 Q903.0859,162.3633 902.3828,162.1289 Q901.6797,161.875 900.9766,161.875 Q900.0977,161.875 899.3555,162.2266 Q898.6328,162.5781 898.0664,163.3594 Q897.5,164.1406 897.5,165.2148 L897.5,166.3672 Q897.5,167.6563 898.5547,168.5156 Q899.6094,169.375 901.4844,169.375 Q902.5977,169.375 903.3789,169.1211 Q903.8281,168.9844 904.3359,168.5352 Q904.668,168.2813 904.8438,168.2031 Q905.0195,168.125 905.2344,168.125 Q905.6445,168.125 905.9375,168.457 Q906.25,168.7695 906.25,169.2188 Q906.25,169.6484 905.8203,170.1563 Q905.1953,170.8984 904.1992,171.3086 Q902.8906,171.875 901.2891,171.875 Q899.4141,171.875 897.9102,171.1328 Q896.6992,170.5469 895.8398,169.2773 Q895,168.0078 895,166.5039 L895,165.1367 Q895,163.5742 895.7422,162.207 Q896.5039,160.8398 897.8125,160.1172 Q899.1406,159.375 900.625,159.375 Q901.5234,159.375 902.3047,159.6875 Q903.0859,160 903.75,160.625 Z " fill="#000000"/><text fill="#000000" font-family="sans-serif" font-size="15" lengthAdjust="spacingAndGlyphs" textLength="140" x="918.75" y="171.1377">ConsoleMastermind</text><line style="stroke: #A80036; stroke-width: 1.875;" x1="883.75" x2="1061.25" y1="185" y2="185"/><line style="stroke: #A80036; stroke-width: 1.875;" x1="883.75" x2="1061.25" y1="195" y2="195"/><!--MD5=[3dbb96204e83d62728e291fc10d13f13]
class GraphicMastermind--><rect codeLine="14" fill="#FEFECE" filter="url(#fgdf7wdqfrdi1)" height="60" id="GraphicMastermind" style="stroke: #A80036; stroke-width: 1.875;" width="175" x="663.75" y="145"/><ellipse cx="682.5" cy="165" fill="#ADD1B2" rx="13.75" ry="13.75" style="stroke: #A80036; stroke-width: 1.25;"/><path d="M685,160.625 Q685.2539,160 685.5469,159.6875 Q685.8398,159.375 686.1719,159.375 Q686.7578,159.375 687.1289,159.7266 Q687.5,160.0781 687.5,160.8984 L687.5,162.8516 Q687.5,163.6719 687.1484,164.0234 Q686.7969,164.375 686.25,164.375 Q685.7617,164.375 685.4492,164.1602 Q685.1367,163.9453 685,163.3789 Q684.9414,162.9883 684.7266,162.7734 Q684.3359,162.3633 683.6328,162.1289 Q682.9297,161.875 682.2266,161.875 Q681.3477,161.875 680.6055,162.2266 Q679.8828,162.5781 679.3164,163.3594 Q678.75,164.1406 678.75,165.2148 L678.75,166.3672 Q678.75,167.6563 679.8047,168.5156 Q680.8594,169.375 682.7344,169.375 Q683.8477,169.375 684.6289,169.1211 Q685.0781,168.9844 685.5859,168.5352 Q685.918,168.2813 686.0938,168.2031 Q686.2695,168.125 686.4844,168.125 Q686.8945,168.125 687.1875,168.457 Q687.5,168.7695 687.5,169.2188 Q687.5,169.6484 687.0703,170.1563 Q686.4453,170.8984 685.4492,171.3086 Q684.1406,171.875 682.5391,171.875 Q680.6641,171.875 679.1602,171.1328 Q677.9492,170.5469 677.0898,169.2773 Q676.25,168.0078 676.25,166.5039 L676.25,165.1367 Q676.25,163.5742 676.9922,162.207 Q677.7539,160.8398 679.0625,160.1172 Q680.3906,159.375 681.875,159.375 Q682.7734,159.375 683.5547,159.6875 Q684.3359,160 685,160.625 Z " fill="#000000"/><text fill="#000000" font-family="sans-serif" font-size="15" lengthAdjust="spacingAndGlyphs" textLength="135" x="700" y="171.1377">GraphicMastermind</text><line style="stroke: #A80036; stroke-width: 1.875;" x1="665" x2="837.5" y1="185" y2="185"/><line style="stroke: #A80036; stroke-width: 1.875;" x1="665" x2="837.5" y1="195" y2="195"/><!--MD5=[00344b25554080b223ed48afc3efe932]
reverse link Mastermind to ConsoleMastermind--><path codeLine="52" d="M732.015,74.3988 C784.8688,96.235 852.4888,124.17 902.5563,144.8538 " fill="none" id="Mastermind-backto-ConsoleMastermind" style="stroke: #A80036; stroke-width: 1.25;"/><polygon fill="none" points="728.6513,82.4763,708.8863,64.8438,735.3325,66.3025,728.6513,82.4763" style="stroke: #A80036; stroke-width: 1.25;"/><!--MD5=[9e99639dc9984f28887e4b96848d5fa3]
reverse link Mastermind to GraphicMastermind--><path codeLine="53" d="M686.285,88.9787 C700.6512,107.725 716.5688,128.495 729.0525,144.785 " fill="none" id="Mastermind-backto-GraphicMastermind" style="stroke: #A80036; stroke-width: 1.25;"/><polygon fill="none" points="679.2525,94.1875,670.9913,69.0212,693.1425,83.5425,679.2525,94.1875" style="stroke: #A80036; stroke-width: 1.25;"/><!--MD5=[a63dd7f30baaeb88fc8dd2ca46e0cc37]
reverse link View to ConsoleView--><path codeLine="54" d="M739.2888,375.6912 C774.5488,397.3725 818.9713,424.69 851.9688,444.9825 " fill="none" id="View-backto-ConsoleView" style="stroke: #A80036; stroke-width: 1.25;"/><polygon fill="none" points="734.3663,382.9363,717.655,362.3863,743.5338,368.0288,734.3663,382.9363" style="stroke: #A80036; stroke-width: 1.25;"/><!--MD5=[12c98b18f03e29aac223ddea0f5a0df4]
reverse link View to GraphicView--><path codeLine="55" d="M692.3238,393.8575 C695.9025,411.265 699.7338,429.8962 702.795,444.785 " fill="none" id="View-backto-GraphicView" style="stroke: #A80036; stroke-width: 1.25;"/><polygon fill="none" points="683.6813,395.2713,687.2175,369.0213,700.8225,391.7475,683.6813,395.2713" style="stroke: #A80036; stroke-width: 1.25;"/><!--MD5=[656610ce8f577c8af05a302e0baea7d9]
reverse link Mastermind to Game--><path codeLine="56" d="M572.9475,65.5575 C526.6375,86.4925 476.25,121.3175 476.25,173.75 C476.25,173.75 476.25,173.75 476.25,476.25 C476.25,522.58 471.0575,576.1738 467.365,608.4225 " fill="none" id="Mastermind-backto-Game" style="stroke: #A80036; stroke-width: 1.25;"/><polygon fill="#A80036" points="588.4175,58.985,579.5594,57.3166,574.6123,64.8516,583.4704,66.52,588.4175,58.985" style="stroke: #A80036; stroke-width: 1.25;"/><!--MD5=[a1b33916ae7328de9d8df5a2edffcf3b]
reverse link Mastermind to View--><path codeLine="57" d="M644.7875,85.52 C643.3675,103.9675 641.9463,125.485 641.25,145 C640.3,171.65 637.355,178.6187 641.25,205 C646.655,241.6075 660.0325,282.12 669.8338,308.5925 " fill="none" id="Mastermind-backto-View" style="stroke: #A80036; stroke-width: 1.25;"/><polygon fill="#A80036" points="646.125,68.9387,640.5379,76.0122,644.9183,83.8901,650.5055,76.8167,646.125,68.9387" style="stroke: #A80036; stroke-width: 1.25;"/><!--MD5=[30157fb00346ce22d5a41b1a73d8958f]
link View to Game--><path codeLine="58" d="M659.9988,369.0675 C619.6363,424.2763 532.0663,544.0563 488.8738,603.135 " fill="none" id="View-to-Game" style="stroke: #A80036; stroke-width: 1.25;"/><polygon fill="#A80036" points="485.0875,608.315,495.763,602.1834,488.7758,603.2693,487.6898,596.2821,485.0875,608.315" style="stroke: #A80036; stroke-width: 1.25;"/><!--MD5=[9c67bf499d44dfc8371d2921d66d8312]
link ConsoleMastermind to ConsoleView--><path codeLine="59" d="M965.2938,205.3175 C951.6913,260.1925 922.2725,378.8625 907.5363,438.3088 " fill="none" id="ConsoleMastermind-to-ConsoleView" style="stroke: #808080; stroke-width: 1.25; stroke-dasharray: 7.0,7.0;"/><polygon fill="#808080" points="905.985,444.565,913.5447,434.8484,907.4887,438.4986,903.8384,432.4425,905.985,444.565" style="stroke: #808080; stroke-width: 1.25;"/><!--MD5=[7421a45f8c1761a8c458ee5edbc075ee]
link GraphicMastermind to GraphicView--><path codeLine="60" d="M751.2863,205.1762 C750.8988,243.0362 748.6987,311.3325 738.75,368.75 C734.6438,392.45 727.2388,418.45 720.8137,438.6475 " fill="none" id="GraphicMastermind-to-GraphicView" style="stroke: #808080; stroke-width: 1.25; stroke-dasharray: 7.0,7.0;"/><polygon fill="#808080" points="718.855,444.72,727.066,435.5471,720.7729,438.7716,717.5485,432.4784,718.855,444.72" style="stroke: #808080; stroke-width: 1.25;"/><!--MD5=[27021d7192df067fe1906bbc86d987c3]
reverse link ConsoleView to GameView--><path codeLine="61" d="M884.8875,520.9563 C876.23,548.8763 865.3325,584.02 857.78,608.3775 " fill="none" id="ConsoleView-backto-GameView" style="stroke: #A80036; stroke-width: 1.25;"/><polygon fill="#A80036" points="889.8113,505.0788,882.8143,510.7614,885.3686,519.4057,892.3656,513.7231,889.8113,505.0788" style="stroke: #A80036; stroke-width: 1.25;"/><!--MD5=[acac721853b56773ba1284bd4254abec]
reverse link ConsoleView to ResumeView--><path codeLine="62" d="M929.3388,518.2275 C949.98,546.555 976.6975,583.22 995.0288,608.3775 " fill="none" id="ConsoleView-backto-ResumeView" style="stroke: #A80036; stroke-width: 1.25;"/><polygon fill="#A80036" points="919.7562,505.0788,920.1318,514.0848,928.5895,517.202,928.214,508.196,919.7562,505.0788" style="stroke: #A80036; stroke-width: 1.25;"/><!--MD5=[1a2a8fca0b6e363b5cf9d4bd576f3fc8]
reverse link GameView to ProposedCombinationView--><path codeLine="63" d="M864.4425,684.4613 C874.1125,711.86 886.2363,746.2125 894.6988,770.19 " fill="none" id="GameView-backto-ProposedCombinationView" style="stroke: #A80036; stroke-width: 1.25;"/><polygon fill="#A80036" points="858.9363,668.8612,856.7178,677.5979,863.9292,683.0059,866.1476,674.2693,858.9363,668.8612" style="stroke: #A80036; stroke-width: 1.25;"/><!--MD5=[64f14b5bcb2cd66dd0fb0586b2fa67b8]
link ResumeView to Console--><path codeLine="64" d="M1082.8038,647.1738 C1158.0437,656.815 1273.55,676.7775 1300,710.625 C1350.3875,775.085 1311.9375,877.9875 1286.05,931.2217 " fill="none" id="ResumeView-to-Console" style="stroke: #808080; stroke-width: 1.25; stroke-dasharray: 7.0,7.0;"/><polygon fill="#808080" points="1283.275,936.8388,1292.7386,928.9646,1286.0418,931.2345,1283.7718,924.5377,1283.275,936.8388" style="stroke: #808080; stroke-width: 1.25;"/><!--MD5=[c2a5c9bdbd180ec1051ac4743f5bea41]
link GameView to Console--><path codeLine="65" d="M906.3588,664.2963 C913.475,667.2788 920.6525,670.2775 927.5,673.125 C967.9863,689.9588 981.895,686.8713 1018.75,710.625 C1114.685,772.4563 1201.5738,877.6587 1242.6025,931.5685 " fill="none" id="GameView-to-Console" style="stroke: #808080; stroke-width: 1.25; stroke-dasharray: 7.0,7.0;"/><polygon fill="#808080" points="1246.4288,936.6224,1243.6234,924.6352,1242.6557,931.6397,1235.6512,930.6721,1246.4288,936.6224" style="stroke: #808080; stroke-width: 1.25;"/><!--MD5=[c374cfb7df2f0bb026d615f7bb0f496c]
link ProposedCombinationView to Console--><path codeLine="66" d="M1019.9525,828.8788 C1056.8475,839.5638 1097.2613,853.4575 1132.5,870.625 C1166.7988,887.335 1201.9325,912.3555 1227.7575,932.525 " fill="none" id="ProposedCombinationView-to-Console" style="stroke: #808080; stroke-width: 1.25; stroke-dasharray: 7.0,7.0;"/><polygon fill="#808080" points="1232.795,936.4903,1227.0455,925.6042,1227.8832,932.6255,1220.8619,933.4632,1232.795,936.4903" style="stroke: #808080; stroke-width: 1.25;"/><!--MD5=[834eb9b21288b69e8c3603a31ba7ea62]
link ProposedCombinationView to ProposedCombination--><path codeLine="67" d="M826.7375,830.7412 C786.3487,844.77 736.0163,860.9213 690,871.875 C661.5663,878.6438 652.6263,872.3288 625,881.875 C589.0238,894.3075 551.7038,915.3458 523.445,933.2254 " fill="none" id="ProposedCombinationView-to-ProposedCombination" style="stroke: #808080; stroke-width: 1.25; stroke-dasharray: 7.0,7.0;"/><polygon fill="#808080" points="517.9175,936.7556,530.09,934.914,523.1848,933.3914,524.7074,926.4862,517.9175,936.7556" style="stroke: #808080; stroke-width: 1.25;"/><!--MD5=[644d3bda32b13afd96f2f5d418a902c1]
link ProposedCombinationView to Color--><path codeLine="68" d="M790.6125,826.3425 C732.2925,838.1063 660.1075,851.58 595,860.625 C542.2413,867.9538 402.6313,855.6838 356.25,881.875 C336.6613,892.9363 321.6088,913.136 311.3275,930.9258 " fill="none" id="ProposedCombinationView-to-Color" style="stroke: #808080; stroke-width: 1.25; stroke-dasharray: 7.0,7.0;"/><polygon fill="#808080" points="308.025,936.8498,317.8708,929.4591,311.0688,931.391,309.1369,924.589,308.025,936.8498" style="stroke: #808080; stroke-width: 1.25;"/><!--MD5=[e0abfdcce3899d806b359fbefa95406d]
link GameView to ProposedCombination--><path codeLine="69" d="M902.7938,669.0162 C954.2613,697.9125 1026.0738,741.9862 1041.25,770.625 C1059.98,805.9688 1068.8038,831.6288 1041.25,860.625 C1009.35,894.1963 669.4825,868.9925 625,881.875 C587.6375,892.695 549.4863,914.4351 521.1763,933.053 " fill="none" id="GameView-to-ProposedCombination" style="stroke: #808080; stroke-width: 1.25; stroke-dasharray: 7.0,7.0;"/><polygon fill="#808080" points="515.6488,936.7309,527.7846,934.6611,520.852,933.2685,522.2447,926.3359,515.6488,936.7309" style="stroke: #808080; stroke-width: 1.25;"/><!--MD5=[702fc50e10cf908e947c7daccafd8a2a]
link GameView to Attempt--><path codeLine="70" d="M796.6875,668.8388 C793.1975,670.3838 789.6988,671.83 786.25,673.125 C677.2538,714.055 644.9338,707.995 531.25,733.125 C450.9275,750.88 428.5063,746.0525 350,770.625 C344.845,772.2388 339.5463,774.1062 334.2913,776.1 " fill="none" id="GameView-to-Attempt" style="stroke: #808080; stroke-width: 1.25; stroke-dasharray: 7.0,7.0;"/><polygon fill="#808080" points="328.155,778.49,340.4527,779.0632,333.9783,776.2203,336.8212,769.7459,328.155,778.49" style="stroke: #808080; stroke-width: 1.25;"/><!--MD5=[2f10888865b2f559cc24db01ac34cee3]
reverse link Combination to ProposedCombination--><path codeLine="72" d="M449.2813,855.2213 C455.8775,882.2262 463.6312,913.9655 469.1275,936.4649 " fill="none" id="Combination-backto-ProposedCombination" style="stroke: #A80036; stroke-width: 1.25;"/><polygon fill="none" points="440.7413,857.135,443.3088,830.7738,457.7413,852.9825,440.7413,857.135" style="stroke: #A80036; stroke-width: 1.25;"/><!--MD5=[ed81d3472c9069d2de3c2f5cd308846f]
reverse link Combination to SecretCombination--><path codeLine="73" d="M380.4375,844.73 C370.6725,850.79 360.3238,856.3888 350,860.625 C301.4088,880.5638 281.68,860.395 233.75,881.875 C204.1725,895.13 175.465,918.1839 155.1675,936.752 " fill="none" id="Combination-backto-SecretCombination" style="stroke: #A80036; stroke-width: 1.25;"/><polygon fill="none" points="375.645,837.4075,401.2512,830.6313,385.46,851.8963,375.645,837.4075" style="stroke: #A80036; stroke-width: 1.25;"/><!--MD5=[29709eb267dc78b1d9e100b5a3a5fec0]
reverse link Attempt to ProposedCombination--><path codeLine="74" d="M328.13,841.8338 C335.4213,848.1488 342.9,854.585 350,860.625 C380.615,886.6737 415.805,915.8805 441.2425,936.865 " fill="none" id="Attempt-backto-ProposedCombination" style="stroke: #A80036; stroke-width: 1.25;"/><polygon fill="#FFFFFF" points="315.3312,830.71,317.7115,839.4039,326.6521,840.5506,324.2719,831.8567,315.3312,830.71" style="stroke: #A80036; stroke-width: 1.25;"/><!--MD5=[9ead452dce5c3bdac732ae50d3b295bd]
reverse link Attempt to SecretCombination--><path codeLine="75" d="M231.8662,841.125 C220.9575,850.3762 209.7763,860.505 200,870.625 C180.1263,891.1988 160.4025,916.9595 146.3588,936.4633 " fill="none" id="Attempt-backto-SecretCombination" style="stroke: #A80036; stroke-width: 1.25;"/><polygon fill="#FFFFFF" points="244.4475,830.7188,235.4814,831.6455,232.8883,840.2783,241.8544,839.3516,244.4475,830.7188" style="stroke: #A80036; stroke-width: 1.25;"/><!--MD5=[d9249be97a352e3fe01bfc6aa6a6cdec]
reverse link Combination to Color--><path codeLine="76" d="M393.1588,842.54 C380.8325,854.8087 367.6563,868.5625 356.25,881.875 C341.365,899.2475 326.175,919.9949 314.645,936.4931 " fill="none" id="Combination-backto-Color" style="stroke: #A80036; stroke-width: 1.25;"/><polygon fill="#A80036" points="405.105,830.8363,396.2486,832.514,394.391,841.3343,403.2474,839.6566,405.105,830.8363" style="stroke: #A80036; stroke-width: 1.25;"/><text fill="#000000" font-family="sans-serif" font-size="16.25" lengthAdjust="spacingAndGlyphs" textLength="6.25" x="312.6283" y="923.0705">*</text><!--MD5=[6397236ca65ddb1b2c0ef8c91c288095]
reverse link Game to SecretCombination--><path codeLine="77" d="M405.935,648.3363 C360.3425,657.3275 297.2075,675.3925 252.5,710.625 C178.005,769.3313 144.2362,883.4163 132.0088,936.7888 " fill="none" id="Game-backto-SecretCombination" style="stroke: #A80036; stroke-width: 1.25;"/><polygon fill="#A80036" points="422.4738,645.3162,414.1975,641.7451,407.7178,648.0113,415.9941,651.5824,422.4738,645.3162" style="stroke: #A80036; stroke-width: 1.25;"/><!--MD5=[3f299a0d1a1224c7ca956914287be965]
link Game to ProposedCombination--><path codeLine="78" d="M501.0075,668.8338 C513.0225,680.3788 524.8738,694.725 531.25,710.625 C561.46,785.9575 522.4188,880.7863 496.28,930.8956 " fill="none" id="Game-to-ProposedCombination" style="stroke: #808080; stroke-width: 1.25; stroke-dasharray: 7.0,7.0;"/><polygon fill="#808080" points="493.1613,936.7804,502.8465,929.1805,496.0874,931.2577,494.0102,924.4986,493.1613,936.7804" style="stroke: #808080; stroke-width: 1.25;"/><!--MD5=[dd30a8d25c09949520e822d603e437c9]
reverse link Game to Attempt--><path codeLine="79" d="M405.7375,643.7412 C360.1725,650.09 299.4588,666.8425 268.75,710.625 C256.5737,727.985 261.215,751.9475 268.2425,770.5988 " fill="none" id="Game-backto-Attempt" style="stroke: #A80036; stroke-width: 1.25;"/><polygon fill="#A80036" points="422.3663,641.7825,414.3331,637.6937,407.4691,643.5363,415.5023,647.6251,422.3663,641.7825" style="stroke: #A80036; stroke-width: 1.25;"/><text fill="#000000" font-family="sans-serif" font-size="16.25" lengthAdjust="spacingAndGlyphs" textLength="113.75" x="270" y="728.7439">playedAttempts</text><text fill="#000000" font-family="sans-serif" font-size="16.25" lengthAdjust="spacingAndGlyphs" textLength="6.25" x="257.5382" y="757.2672">*</text><!--MD5=[dd30a8d25c09949520e822d603e437c9]
reverse link Game to Attempt--><path codeLine="80" d="M434.9288,682.6375 C422.32,699.5063 406.6188,718.3525 390,733.125 C371.485,749.5825 348.37,764.42 328.3238,775.86 " fill="none" id="Game-backto-Attempt-1" style="stroke: #A80036; stroke-width: 1.25;"/><polygon fill="#A80036" points="444.7463,669.065,436.2994,672.2116,435.9552,681.2189,444.402,678.0723,444.7463,669.065" style="stroke: #A80036; stroke-width: 1.25;"/><text fill="#000000" font-family="sans-serif" font-size="16.25" lengthAdjust="spacingAndGlyphs" textLength="107.5" x="412.5" y="728.7439">currentAttempt</text><!--MD5=[9de6165825e99b111fcebad8a4663ea7]
link ProposedCombinationView to ErrorMessage--><path codeLine="81" d="M903.235,830.7738 C901.5463,858.43 898.9938,900.2188 897.1788,929.9399 " fill="none" id="ProposedCombinationView-to-ErrorMessage" style="stroke: #808080; stroke-width: 1.25; stroke-dasharray: 7.0,7.0;"/><polygon fill="#808080" points="896.7813,936.4649,902.4583,925.5409,897.1626,930.2265,892.4769,924.9308,896.7813,936.4649" style="stroke: #808080; stroke-width: 1.25;"/><!--MD5=[9ba8f267f6eb5422c07b411f605ad66a]
link GameView to Message--><path codeLine="82" d="M906.3463,662.6775 C951.1875,683.585 1010.7625,719.21 1041.25,770.625 C1070.5588,820.0525 1069.3475,889.1787 1065.135,930.4698 " fill="none" id="GameView-to-Message" style="stroke: #808080; stroke-width: 1.25; stroke-dasharray: 7.0,7.0;"/><polygon fill="#808080" points="1064.4375,936.8505,1070.6304,926.2104,1065.1166,930.6375,1060.6896,925.1238,1064.4375,936.8505" style="stroke: #808080; stroke-width: 1.25;"/><!--MD5=[91198d1c12ec6e73a40fb6837ae56756]
link ResumeView to Message--><path codeLine="83" d="M1048.8025,668.8588 C1059.7063,680.6 1070.535,695.07 1076.25,710.625 C1103.5575,784.945 1084.8875,879.5875 1071.0775,930.0879 " fill="none" id="ResumeView-to-Message" style="stroke: #808080; stroke-width: 1.25; stroke-dasharray: 7.0,7.0;"/><polygon fill="#808080" points="1069.2513,936.6171,1077.0966,927.1296,1070.9346,930.5981,1067.4661,924.4362,1069.2513,936.6171" style="stroke: #808080; stroke-width: 1.25;"/><!--MD5=[27d7e1388c3d8930cd4d76d00ffd2254]
reverse link GraphicView to graphics--><path codeLine="84" d="M705.2338,521.6125 C703.2075,547.7513 700.7038,580.0487 698.855,603.9025 " fill="none" id="GraphicView-backto-graphics" style="stroke: #A80036; stroke-width: 1.25;"/><polygon fill="#A80036" points="706.515,505.0788,700.9506,512.1701,705.3562,520.0339,710.9207,512.9426,706.515,505.0788" style="stroke: #A80036; stroke-width: 1.25;"/><!--MD5=[0f0ebad4a9ef9763863e8e0032d38af6]
@startuml
skinparam {
    BoundaryBackgroundColor #629EF9
    BoundaryBorderColor black
    BoundaryFontSize 12
    BoundarySize 10
    ControlBackgroundColor #b5bd68
    ControlBorderColor #718c00
    EntityBackgroundColor #F2AC4E
    EntityBorderColor black
}

abstract class Mastermind
class ConsoleMastermind
class GraphicMastermind

package models {
class Game
class Combination
class SecretCombination
class ProposedCombination
Enum Color
class Attempt

}
package utils{
class Console
}



package views {

    class ErrorMessage
    class Message
    class View
    class GraphicView
    class ConsoleView

    package console{
        class ProposedCombinationView
        class ResumeView
        class GameView
}


    package graphics {

    }

}

Mastermind <|- - ConsoleMastermind
Mastermind <|- - GraphicMastermind
View <|- - ConsoleView
View <|- - GraphicView
Mastermind *- - - Game
Mastermind *- - - View
View - - -> Game
ConsoleMastermind .[#Gray].> ConsoleView
GraphicMastermind .[#Gray].> GraphicView
ConsoleView *- - GameView
ConsoleView *- - ResumeView
GameView *- - ProposedCombinationView
ResumeView .[#Gray].> Console
GameView .[#Gray].> Console
ProposedCombinationView .[#Gray].> Console
ProposedCombinationView .[#Gray].> ProposedCombination
ProposedCombinationView .[#Gray].> Color
GameView .[#Gray].> ProposedCombination
GameView .[#Gray].> Attempt

Combination <|- - ProposedCombination
Combination <|- - SecretCombination
Attempt o- - ProposedCombination
Attempt o- - SecretCombination
Combination *- - "*" Color
Game *- - SecretCombination
Game .[#Gray].> ProposedCombination
Game *- - "*" Attempt : playedAttempts
Game *- - Attempt : currentAttempt
ProposedCombinationView .[#Gray].> ErrorMessage
GameView ..[#Gray].> Message
ResumeView ..[#Gray].> Message
GraphicView *- - graphics
@enduml

PlantUML version 1.2020.20(Sat Nov 21 11:02:45 CET 2020)
(GPL source distribution)
Java Runtime: OpenJDK Runtime Environment
JVM: OpenJDK 64-Bit Server VM
Default Encoding: Cp1252
Language: en
Country: GB
--></g></svg>